<svg width="21" height="20" viewBox="0 0 21 20" fill="none" xmlns="http://www.w3.org/2000/svg">
<path d="M15.5 9C16.9587 9 18.3576 9.57946 19.3891 10.6109C20.4205 11.6424 21 13.0413 21 14.5C21 15.9587 20.4205 17.3576 19.3891 18.3891C18.3576 19.4205 16.9587 20 15.5 20C14.0413 20 12.6424 19.4205 11.6109 18.3891C10.5795 17.3576 10 15.9587 10 14.5C10 13.0413 10.5795 11.6424 11.6109 10.6109C12.6424 9.57946 14.0413 9 15.5 9V9ZM15.5 11L15.41 11.007C15.3101 11.0253 15.2181 11.0735 15.1463 11.1453C15.0745 11.2171 15.0263 11.3091 15.008 11.409L15 11.5V14H12.498L12.408 14.008C12.3081 14.0263 12.2161 14.0745 12.1443 14.1463C12.0725 14.2181 12.0243 14.3101 12.006 14.41L11.998 14.5L12.006 14.59C12.0243 14.6899 12.0725 14.7819 12.1443 14.8537C12.2161 14.9255 12.3081 14.9737 12.408 14.992L12.498 15H15V17.503L15.008 17.593C15.0263 17.6929 15.0745 17.7849 15.1463 17.8567C15.2181 17.9285 15.3101 17.9767 15.41 17.995L15.5 18.003L15.59 17.995C15.6899 17.9767 15.7819 17.9285 15.8537 17.8567C15.9255 17.7849 15.9737 17.6929 15.992 17.593L16 17.503V15L18.504 15.001L18.594 14.993C18.6939 14.9747 18.7859 14.9265 18.8577 14.8547C18.9295 14.7829 18.9777 14.6909 18.996 14.591L19.004 14.501L18.996 14.411C18.9777 14.311 18.9293 14.2189 18.8573 14.1471C18.7853 14.0752 18.6931 14.0271 18.593 14.009L18.503 14.001H16V11.501L15.992 11.411C15.9739 11.3109 15.9258 11.2187 15.8539 11.1467C15.7821 11.0747 15.69 11.0263 15.59 11.008L15.5 11ZM12.254 7C13.089 7 13.817 7.454 14.205 8.13C13.171 8.3407 12.2039 8.7999 11.387 9.46794C10.5702 10.136 9.92819 10.9928 9.51651 11.9644C9.10483 12.936 8.93581 13.9933 9.02405 15.0448C9.1123 16.0963 9.45514 17.1106 10.023 18L10.003 17.999C8.80926 17.999 7.66441 17.5248 6.82031 16.6807C5.97621 15.8366 5.502 14.6917 5.502 13.498V9.25C5.502 8.65326 5.73905 8.08097 6.16101 7.65901C6.58297 7.23705 7.15526 7 7.752 7H12.254V7ZM5.406 7C4.87634 7.5509 4.5586 8.27139 4.509 9.034L4.502 9.25V13.499C4.502 14.346 4.693 15.148 5.035 15.864C4.44228 16.0226 3.82103 16.0427 3.21929 15.9228C2.61756 15.8029 2.05145 15.5463 1.56475 15.1727C1.07805 14.7991 0.683789 14.3185 0.412463 13.7682C0.141138 13.2179 1.23168e-05 12.6126 1.69987e-08 11.999V9.25C-7.00219e-05 8.67987 0.216295 8.13098 0.605369 7.71425C0.994443 7.29751 1.52721 7.04402 2.096 7.005L2.25 7H5.406V7ZM17.75 7C18.3467 7 18.919 7.23705 19.341 7.65901C19.7629 8.08097 20 8.65326 20 9.25V9.81C18.791 8.64668 17.1778 7.99782 15.5 8L15.257 8.005C15.102 7.63202 14.8789 7.2912 14.599 7H17.75ZM16.5 1C17.163 1 17.7989 1.26339 18.2678 1.73223C18.7366 2.20107 19 2.83696 19 3.5C19 4.16304 18.7366 4.79893 18.2678 5.26777C17.7989 5.73661 17.163 6 16.5 6C15.837 6 15.2011 5.73661 14.7322 5.26777C14.2634 4.79893 14 4.16304 14 3.5C14 2.83696 14.2634 2.20107 14.7322 1.73223C15.2011 1.26339 15.837 1 16.5 1ZM10 0C10.7956 0 11.5587 0.316071 12.1213 0.87868C12.6839 1.44129 13 2.20435 13 3C13 3.79565 12.6839 4.55871 12.1213 5.12132C11.5587 5.68393 10.7956 6 10 6C9.20435 6 8.44129 5.68393 7.87868 5.12132C7.31607 4.55871 7 3.79565 7 3C7 2.20435 7.31607 1.44129 7.87868 0.87868C8.44129 0.316071 9.20435 0 10 0V0ZM3.5 1C4.16304 1 4.79893 1.26339 5.26777 1.73223C5.73661 2.20107 6 2.83696 6 3.5C6 4.16304 5.73661 4.79893 5.26777 5.26777C4.79893 5.73661 4.16304 6 3.5 6C2.83696 6 2.20107 5.73661 1.73223 5.26777C1.26339 4.79893 1 4.16304 1 3.5C1 2.83696 1.26339 2.20107 1.73223 1.73223C2.20107 1.26339 2.83696 1 3.5 1V1Z" fill="black"/>
</svg>
