<svg width="24" height="24" viewBox="0 0 24 24" fill="none" xmlns="http://www.w3.org/2000/svg">
<path d="M17.5 12C18.9587 12 20.3576 12.5795 21.3891 13.6109C22.4205 14.6424 23 16.0413 23 17.5C23 18.9587 22.4205 20.3576 21.3891 21.3891C20.3576 22.4205 18.9587 23 17.5 23C16.0413 23 14.6424 22.4205 13.6109 21.3891C12.5795 20.3576 12 18.9587 12 17.5C12 16.0413 12.5795 14.6424 13.6109 13.6109C14.6424 12.5795 16.0413 12 17.5 12V12ZM17.5 14L17.41 14.007C17.3101 14.0253 17.2181 14.0735 17.1463 14.1453C17.0745 14.2171 17.0263 14.3091 17.008 14.409L17 14.5V17H14.498L14.408 17.008C14.3081 17.0263 14.2161 17.0745 14.1443 17.1463C14.0725 17.2181 14.0243 17.3101 14.006 17.41L13.998 17.5L14.006 17.59C14.0243 17.6899 14.0725 17.7819 14.1443 17.8537C14.2161 17.9255 14.3081 17.9737 14.408 17.992L14.498 18H17V20.503L17.008 20.593C17.0263 20.6929 17.0745 20.7849 17.1463 20.8567C17.2181 20.9285 17.3101 20.9767 17.41 20.995L17.5 21.003L17.59 20.995C17.6899 20.9767 17.7819 20.9285 17.8537 20.8567C17.9255 20.7849 17.9737 20.6929 17.992 20.593L18 20.503V18L20.504 18.001L20.594 17.993C20.6939 17.9747 20.7859 17.9265 20.8577 17.8547C20.9295 17.7829 20.9777 17.6909 20.996 17.591L21.004 17.501L20.996 17.411C20.9777 17.311 20.9293 17.2189 20.8573 17.1471C20.7853 17.0752 20.6931 17.0271 20.593 17.009L20.503 17.001H18V14.501L17.992 14.411C17.9739 14.3109 17.9258 14.2187 17.8539 14.1467C17.7821 14.0747 17.69 14.0263 17.59 14.008L17.5 14ZM14.254 10C15.089 10 15.817 10.454 16.205 11.13C15.171 11.3407 14.2039 11.7999 13.387 12.4679C12.5702 13.136 11.9282 13.9928 11.5165 14.9644C11.1048 15.936 10.9358 16.9933 11.0241 18.0448C11.1123 19.0963 11.4551 20.1106 12.023 21L12.003 20.999C10.8093 20.999 9.66441 20.5248 8.82031 19.6807C7.97621 18.8366 7.502 17.6917 7.502 16.498V12.25C7.502 11.6533 7.73905 11.081 8.16101 10.659C8.58297 10.2371 9.15526 10 9.752 10H14.254V10ZM7.406 10C6.87634 10.5509 6.5586 11.2714 6.509 12.034L6.502 12.25V16.499C6.502 17.346 6.693 18.148 7.035 18.864C6.44228 19.0226 5.82103 19.0427 5.21929 18.9228C4.61756 18.8029 4.05145 18.5463 3.56475 18.1727C3.07805 17.7991 2.68379 17.3185 2.41246 16.7682C2.14114 16.2179 2.00001 15.6126 2 14.999V12.25C1.99993 11.6799 2.2163 11.131 2.60537 10.7142C2.99444 10.2975 3.52721 10.044 4.096 10.005L4.25 10H7.406V10ZM19.75 10C20.3467 10 20.919 10.2371 21.341 10.659C21.7629 11.081 22 11.6533 22 12.25V12.81C20.791 11.6467 19.1778 10.9978 17.5 11L17.257 11.005C17.102 10.632 16.8789 10.2912 16.599 10H19.75ZM18.5 4C19.163 4 19.7989 4.26339 20.2678 4.73223C20.7366 5.20107 21 5.83696 21 6.5C21 7.16304 20.7366 7.79893 20.2678 8.26777C19.7989 8.73661 19.163 9 18.5 9C17.837 9 17.2011 8.73661 16.7322 8.26777C16.2634 7.79893 16 7.16304 16 6.5C16 5.83696 16.2634 5.20107 16.7322 4.73223C17.2011 4.26339 17.837 4 18.5 4ZM12 3C12.7956 3 13.5587 3.31607 14.1213 3.87868C14.6839 4.44129 15 5.20435 15 6C15 6.79565 14.6839 7.55871 14.1213 8.12132C13.5587 8.68393 12.7956 9 12 9C11.2044 9 10.4413 8.68393 9.87868 8.12132C9.31607 7.55871 9 6.79565 9 6C9 5.20435 9.31607 4.44129 9.87868 3.87868C10.4413 3.31607 11.2044 3 12 3V3ZM5.5 4C6.16304 4 6.79893 4.26339 7.26777 4.73223C7.73661 5.20107 8 5.83696 8 6.5C8 7.16304 7.73661 7.79893 7.26777 8.26777C6.79893 8.73661 6.16304 9 5.5 9C4.83696 9 4.20107 8.73661 3.73223 8.26777C3.26339 7.79893 3 7.16304 3 6.5C3 5.83696 3.26339 5.20107 3.73223 4.73223C4.20107 4.26339 4.83696 4 5.5 4V4Z" fill="#DB330F"/>
</svg>
